<?xml version="1.0" encoding="utf-8"?>
<!-- Generator: Adobe Illustrator 28.1.0, SVG Export Plug-In . SVG Version: 6.00 Build 0)  -->
<svg version="1.1" id="Layer_2" xmlns="http://www.w3.org/2000/svg" xmlns:xlink="http://www.w3.org/1999/xlink" x="0px" y="0px"
	 viewBox="0 0 400 400" style="enable-background:new 0 0 400 400;" xml:space="preserve">
<style type="text/css">
	.st0{fill:#FE5722;}
	.st1{fill:#5A5A5A;}
</style>
<g>
	<path class="st0" d="M78.1,216c-5.9,0-11.7,0-17.6,0c-1.3,0-2.4-1-2.4-2.4c0-1.4,0.9-2.5,2.3-2.5c5.2,0,10.3-0.1,15.5-0.1
		c6.6,0,13.1,0,19.7,0c1.1,0,2.3,1,2.4,1.9c0.2,1.3-0.4,2.6-1.7,3c-0.1,0.1-0.3,0.1-0.4,0.1C90.1,216,84.1,216,78.1,216z"/>
	<path class="st0" d="M95.5,204.6c-0.9-7.5-6.7-13.6-14.1-15c-0.1,0-0.2-0.1-0.3-0.1c-0.2-0.1-0.4-0.3-0.4-0.5v-2.2
		c0.2-0.1,0.4-0.1,0.7-0.2c1.1-0.3,1.9-1.5,1.8-2.6c-0.1-1.1-1.1-2.2-2.1-2.2c-1.8,0-3.7,0-5.5,0c-1.2,0-2.2,1-2.3,2.2
		c-0.1,1.2,0.6,2.3,1.8,2.7c0.2,0.1,0.4,0.1,0.7,0.2c0,0.8,0,1.6,0,2.4c0,0.1-0.2,0.3-0.4,0.3c-5.8,1.1-10,4.3-12.8,9.5
		c-1.3,2.5-1.9,5.2-1.8,8c0,1.2,1.1,2.3,2.2,2.3h30.4c1.2,0,2.3-1,2.3-2.2C95.6,206.2,95.6,205.4,95.5,204.6z M89.1,205.7
		c0,0-0.1,0-0.1,0c-0.4,0-0.8-0.3-0.9-0.8c-0.7-6-5.7-8.4-5.9-8.5c-0.4-0.2-0.7-0.8-0.4-1.2c0.2-0.4,0.8-0.7,1.2-0.4
		c0.2,0.1,6.1,2.9,6.9,9.9C90,205.1,89.6,205.6,89.1,205.7z"/>
	<path class="st1" d="M111.2,205.5l-1.2-4.6l15.9-12.4h7L111.2,205.5z M107.6,210.9v-22.4h5.4v22.4H107.6z M126.2,210.9l-9.6-11.6
		l3.3-3.7l12.9,15.3H126.2z M141.7,211.2c-2.4,0-4.4-0.4-6.2-1.1c-1.8-0.8-3.1-1.8-4.1-3.1c-1-1.3-1.5-2.8-1.5-4.5
		c0-1.4,0.3-2.6,0.9-3.7c0.6-1.1,1.4-2,2.4-2.8c1-0.8,2.2-1.4,3.6-1.8c1.4-0.4,2.8-0.6,4.3-0.6c1.5,0,2.9,0.2,4.2,0.6
		c1.3,0.4,2.4,1,3.4,1.8c1,0.7,1.7,1.6,2.3,2.7s0.8,2.2,0.7,3.5l0,1.6h-18l-0.7-3.2h14.6l-0.5,0.7v-0.6c-0.1-0.6-0.4-1.1-1-1.5
		c-0.5-0.4-1.2-0.8-2.1-1.1c-0.8-0.3-1.7-0.4-2.8-0.4c-1.2,0-2.2,0.1-3.2,0.4c-1,0.3-1.8,0.8-2.4,1.4c-0.6,0.6-0.9,1.5-0.9,2.6
		c0,0.9,0.3,1.7,1,2.5c0.7,0.7,1.6,1.3,2.8,1.7c1.2,0.4,2.6,0.6,4.2,0.6c1.6,0,2.9-0.2,3.9-0.5c1-0.4,1.7-0.7,2.2-0.9l2.2,3.3
		c-0.8,0.5-1.7,0.9-2.7,1.3c-1,0.4-2,0.6-3.1,0.8C144.1,211.1,142.9,211.2,141.7,211.2z M155.8,210.9v-22.2h5.1v22.2H155.8z
		 M150.8,198.4v-4.5h15.9v4.5H150.8z M177.8,211.2c-2.4,0-4.4-0.4-6.2-1.1c-1.8-0.8-3.1-1.8-4.1-3.1c-1-1.3-1.5-2.8-1.5-4.5
		c0-1.4,0.3-2.6,0.9-3.7c0.6-1.1,1.4-2,2.4-2.8c1-0.8,2.2-1.4,3.6-1.8c1.4-0.4,2.8-0.6,4.3-0.6c1.5,0,2.9,0.2,4.2,0.6
		c1.3,0.4,2.4,1,3.4,1.8c1,0.7,1.7,1.6,2.3,2.7c0.5,1,0.8,2.2,0.7,3.5l0,1.6h-18l-0.7-3.2h14.6l-0.5,0.7v-0.6
		c-0.1-0.6-0.4-1.1-1-1.5c-0.5-0.4-1.2-0.8-2.1-1.1c-0.8-0.3-1.8-0.4-2.8-0.4c-1.2,0-2.2,0.1-3.2,0.4c-1,0.3-1.8,0.8-2.4,1.4
		c-0.6,0.6-0.9,1.5-0.9,2.6c0,0.9,0.3,1.7,1,2.5c0.7,0.7,1.6,1.3,2.8,1.7c1.2,0.4,2.6,0.6,4.2,0.6c1.6,0,2.9-0.2,3.9-0.5
		c1-0.4,1.7-0.7,2.2-0.9l2.2,3.3c-0.8,0.5-1.7,0.9-2.7,1.3c-1,0.4-2,0.6-3.1,0.8C180.2,211.1,179,211.2,177.8,211.2z M189.9,210.9
		v-17h4.9l0.2,6.4l-1.6,0c0.3-1.3,0.9-2.4,1.7-3.4c0.8-1,1.8-1.8,2.9-2.4c1.1-0.6,2.3-0.9,3.5-0.9c0.8,0,1.6,0.1,2.3,0.3
		c0.8,0.2,1.4,0.4,1.9,0.7l-1.4,5.5c-0.4-0.3-1.1-0.6-1.9-0.7c-0.8-0.2-1.5-0.3-2.3-0.3c-0.8,0-1.6,0.1-2.2,0.4
		c-0.6,0.3-1.2,0.6-1.6,1c-0.4,0.4-0.7,0.9-1,1.4c-0.2,0.5-0.3,1-0.3,1.6v7.6H189.9z M207.4,210.9v-17h5.1v17H207.4z M210,190.2
		c-1,0-1.7-0.2-2.2-0.7c-0.5-0.5-0.8-1.1-0.8-2c0-0.8,0.3-1.4,0.8-1.9c0.6-0.5,1.3-0.7,2.2-0.7c1,0,1.7,0.2,2.2,0.7
		c0.6,0.4,0.8,1.1,0.8,1.9c0,0.8-0.3,1.4-0.8,1.9C211.7,190,210.9,190.2,210,190.2z M217.2,210.9v-17h4.8l0.2,4.7l-1.5,0.3
		c0.3-0.9,0.9-1.8,1.6-2.6c0.8-0.8,1.7-1.5,2.8-2c1.2-0.5,2.4-0.8,3.9-0.8c1.7,0,3.1,0.3,4.3,1c1.2,0.7,2.1,1.5,2.7,2.7
		c0.6,1.1,0.9,2.3,0.9,3.7v10h-5.1v-8.8c0-0.8-0.2-1.6-0.6-2.2c-0.4-0.6-0.9-1.1-1.6-1.5c-0.7-0.4-1.5-0.5-2.3-0.5
		c-0.8,0-1.5,0.1-2.2,0.4c-0.6,0.3-1.1,0.6-1.6,1.1c-0.4,0.4-0.8,0.9-1,1.4c-0.2,0.5-0.3,1-0.3,1.4v8.7h-2.6c-0.9,0-1.5,0-1.9,0
		C217.4,210.9,217.2,210.9,217.2,210.9z M250.9,218.2c-2.2,0-4-0.2-5.6-0.7c-1.6-0.4-2.8-0.9-3.8-1.5l1.7-3.8
		c0.5,0.2,1.1,0.4,1.7,0.7c0.7,0.3,1.4,0.5,2.3,0.7c0.9,0.2,1.9,0.3,3,0.3c1.1,0,2.1-0.2,3-0.7c0.9-0.4,1.5-1.1,2-1.9
		c0.5-0.8,0.7-1.9,0.7-3.1v-1.6l1,0.2c-0.2,0.7-0.7,1.3-1.5,1.9c-0.8,0.6-1.9,1-3.2,1.4c-1.3,0.4-2.6,0.5-4.1,0.5
		c-1.9,0-3.5-0.4-4.9-1.1c-1.4-0.7-2.5-1.7-3.3-3c-0.8-1.3-1.2-2.8-1.2-4.4c0-1.7,0.4-3.2,1.2-4.5c0.9-1.3,2-2.4,3.5-3.1
		c1.5-0.7,3.2-1.1,5.2-1.1c0.5,0,1.1,0.1,1.8,0.2c0.7,0.1,1.5,0.3,2.2,0.5s1.5,0.5,2.1,0.8c0.7,0.3,1.2,0.7,1.7,1.1s0.7,0.9,0.7,1.4
		l-1.1,0.3l0.2-3.8h4.9v14.3c0,1.7-0.3,3.2-0.9,4.4c-0.6,1.3-1.3,2.3-2.3,3.1s-2.1,1.5-3.3,1.9C253.5,218,252.2,218.2,250.9,218.2z
		 M250.2,206.8c1.2,0,2.3-0.2,3.1-0.5c0.9-0.4,1.6-0.9,2.1-1.6c0.5-0.7,0.7-1.5,0.7-2.3c0-0.9-0.2-1.7-0.7-2.3
		c-0.5-0.7-1.2-1.2-2-1.6c-0.9-0.4-1.9-0.6-3.2-0.6c-1.3,0-2.4,0.2-3.3,0.6c-1,0.4-1.7,0.9-2.2,1.6c-0.5,0.7-0.8,1.4-0.8,2.3
		c0,0.9,0.3,1.7,0.8,2.3c0.5,0.7,1.3,1.2,2.2,1.6C247.8,206.6,248.9,206.8,250.2,206.8z M268.4,210.9l11.1-22.4h5.1l11.1,22.4h-5.6
		l-6.6-13.3c-0.2-0.5-0.4-0.9-0.6-1.3c-0.2-0.4-0.4-0.8-0.5-1.2c-0.2-0.4-0.3-0.8-0.5-1.2c-0.1-0.4-0.3-0.8-0.4-1.2l1.2,0
		c-0.1,0.4-0.3,0.9-0.5,1.3c-0.1,0.4-0.3,0.8-0.5,1.2c-0.2,0.4-0.4,0.8-0.5,1.2c-0.2,0.4-0.4,0.8-0.6,1.2l-6.6,13.2H268.4z
		 M273.6,206.9l1.8-4.1h13.4l0.7,4.1H273.6z M295.6,217.9v-24.1h4.9l0.2,3.8l-1-0.3c0.2-0.6,0.6-1.2,1.4-1.8
		c0.8-0.6,1.7-1.1,2.9-1.4c1.2-0.4,2.5-0.6,4-0.6c2,0,3.7,0.4,5.1,1.1c1.5,0.7,2.6,1.8,3.4,3.1c0.8,1.3,1.2,2.8,1.2,4.6
		c0,1.7-0.4,3.3-1.2,4.6c-0.8,1.3-2,2.4-3.4,3.1c-1.5,0.7-3.2,1.1-5.2,1.1c-1.5,0-2.8-0.2-4-0.6c-1.2-0.4-2.2-0.9-2.9-1.5
		c-0.8-0.6-1.2-1.3-1.4-1.9l1.2-0.4v11.2H295.6z M306.7,206.9c1.2,0,2.3-0.2,3.2-0.5c0.9-0.4,1.6-0.9,2.1-1.6
		c0.5-0.7,0.8-1.5,0.8-2.4s-0.3-1.7-0.8-2.3c-0.5-0.7-1.2-1.2-2.1-1.6c-0.9-0.4-2-0.6-3.2-0.6s-2.3,0.2-3.2,0.6
		c-0.9,0.4-1.6,0.9-2.1,1.6c-0.5,0.7-0.7,1.4-0.7,2.3c0,0.9,0.2,1.7,0.7,2.4c0.5,0.7,1.2,1.2,2.1,1.6
		C304.4,206.7,305.5,206.9,306.7,206.9z M319.7,217.9v-24.1h4.9l0.2,3.8l-1-0.3c0.2-0.6,0.6-1.2,1.4-1.8s1.8-1.1,2.9-1.4
		c1.2-0.4,2.5-0.6,4-0.6c2,0,3.7,0.4,5.1,1.1c1.5,0.7,2.6,1.8,3.4,3.1c0.8,1.3,1.2,2.8,1.2,4.6c0,1.7-0.4,3.3-1.2,4.6
		c-0.8,1.3-2,2.4-3.4,3.1c-1.5,0.7-3.2,1.1-5.2,1.1c-1.5,0-2.8-0.2-4-0.6c-1.2-0.4-2.2-0.9-2.9-1.5c-0.8-0.6-1.2-1.3-1.4-1.9
		l1.2-0.4v11.2H319.7z M330.8,206.9c1.2,0,2.3-0.2,3.2-0.5c0.9-0.4,1.6-0.9,2.1-1.6c0.5-0.7,0.8-1.5,0.8-2.4s-0.3-1.7-0.8-2.3
		c-0.5-0.7-1.2-1.2-2.1-1.6c-0.9-0.4-2-0.6-3.2-0.6s-2.3,0.2-3.2,0.6c-0.9,0.4-1.6,0.9-2.1,1.6c-0.5,0.7-0.7,1.4-0.7,2.3
		c0,0.9,0.2,1.7,0.7,2.4c0.5,0.7,1.2,1.2,2.1,1.6C328.5,206.7,329.6,206.9,330.8,206.9z"/>
</g>
</svg>
